{"title":"Ninja Assassin 2009 Cam (FLV)","uid":5187915,"size":330149566,"categoryP":"video","categoryS":"movies","magnet":"?xt=urn:btih:c17149e5fcf093e14ed9c82b7ef4615f21dd65fc&amp;dn=Ninja+Assassin+2009+Cam+%28FLV%29&amp;tr=udp%3A%2F%2Ftracker.openbittorrent.com%3A80&amp;tr=udp%3A%2F%2Fopen.demonii.com%3A1337&amp;tr=udp%3A%2F%2Ftracker.coppersurfer.tk%3A6969&amp;tr=udp%3A%2F%2Fexodus.desync.com%3A6969","seeders":0,"leechers":1,"uploader":"IwannaFan2","files":1,"time":1259546974,"description":"I got it from MYP2P.CA so ya know its real.\nThis file is in FLV format so VLC media player will play it no problem.\n\nVideo\nFormat                           : H.263\nDuration                         : 1h 28mn\nBit rate                         : 354 Kbps\nWidth                            : 480 pixels\nHeight                           : 272 pixels\nDisplay aspect ratio             : 16:9\nFrame rate                       : 23.976 fps\nBits/(Pixel*Frame)               : 0.113\nStream size                      : 230 MiB (73%)\n\nAudio\nFormat                           : MPEG Audio\nFormat version                   : Version 2\nFormat profile                   : Layer 3\nFormat_Settings_Mode             : Joint stereo / MS Stereo\nDuration                         : 1h 28mn\nBit rate mode                    : Constant\nBit rate                         : 128 Kbps\nChannel(s)                       : 2 channels\nSampling rate                    : 22.05 KHz\nResolution                       : 16 bits\nStream size                      : 83.1 MiB (26%)\nWriting library                  : LAME3.98.2\n\n","torrent":{"xt":"urn:btih:c17149e5fcf093e14ed9c82b7ef4615f21dd65fc","amp;dn":"Ninja+Assassin+2009+Cam+%28FLV%29","amp;tr":["udp%3A%2F%2Ftracker.openbittorrent.com%3A80","udp%3A%2F%2Fopen.demonii.com%3A1337","udp%3A%2F%2Ftracker.coppersurfer.tk%3A6969","udp%3A%2F%2Fexodus.desync.com%3A6969"],"infoHash":"c17149e5fcf093e14ed9c82b7ef4615f21dd65fc","infoHashBuffer":{"type":"Buffer","data":[193,113,73,229,252,240,147,225,78,217,200,43,126,244,97,95,33,221,101,252]},"announce":[],"urlList":[]}}